<?xml version="1.0" standalone="no"?>
<!DOCTYPE svg PUBLIC "-//W3C//DTD SVG 20010904//EN"
 "http://www.w3.org/TR/2001/REC-SVG-20010904/DTD/svg10.dtd">
<svg version="1.0" xmlns="http://www.w3.org/2000/svg"
 width="300.000000pt" height="243.000000pt" viewBox="0 0 300.000000 243.000000"
 preserveAspectRatio="xMidYMid meet">
<metadata>
Created by potrace 1.10, written by Peter Selinger 2001-2011
</metadata>
<g transform="translate(0.000000,243.000000) scale(0.100000,-0.100000)"
fill="#000000" stroke="none">
<path d="M1748 2334 c-35 -18 -48 -43 -48 -89 0 -48 53 -105 96 -105 49 0 113
53 114 94 1 87 -87 141 -162 100z m99 -34 c42 -39 38 -83 -11 -115 -71 -47
-146 62 -80 114 33 26 64 27 91 1z"/>
<path d="M1407 2290 c-34 -27 -50 -76 -37 -119 9 -31 8 -32 -8 -18 -18 16
-116 68 -136 71 -6 1 -29 8 -50 15 -26 9 -70 12 -136 9 -87 -4 -104 -8 -173
-43 -76 -38 -95 -55 -151 -128 -33 -43 -60 -59 -130 -76 -101 -25 -192 -85
-264 -175 -14 -17 -63 -120 -70 -146 -11 -40 -13 -181 -3 -215 10 -39 10 -40
-41 -91 -29 -29 -56 -50 -62 -47 -5 3 -6 1 -2 -5 3 -6 0 -16 -7 -24 -7 -7 -26
-39 -42 -72 -25 -52 -29 -70 -29 -156 -1 -59 3 -102 10 -111 7 -8 16 -30 22
-50 19 -70 116 -171 212 -222 49 -26 154 -54 229 -61 76 -8 83 -13 101 -65 34
-105 152 -185 290 -198 24 -2 47 -6 50 -9 3 -3 7 -57 10 -120 5 -110 6 -114
35 -144 38 -38 88 -47 138 -27 59 25 74 61 76 184 2 111 5 128 23 117 6 -4 8
-2 5 3 -7 12 175 173 195 173 7 0 40 -36 73 -80 100 -135 147 -195 155 -200 7
-5 33 -40 92 -126 43 -62 71 -73 193 -75 108 -1 109 -1 133 27 20 23 31 27 64
25 33 -2 45 4 74 33 43 43 46 90 8 135 -45 54 -134 48 -165 -11 -27 -50 -35
-51 -70 -5 -19 23 -36 44 -39 47 -25 24 -78 99 -73 104 4 3 1 6 -6 6 -26 0 -4
24 25 27 132 15 244 113 314 276 18 42 36 78 39 78 3 1 30 3 60 5 117 5 238
77 319 189 9 13 47 92 62 130 l12 30 26 -32 c53 -62 114 -67 163 -12 84 94
-25 222 -133 155 -21 -12 -35 -26 -31 -29 3 -4 2 -7 -4 -7 -6 0 -13 26 -16 58
-4 31 -13 82 -21 112 l-14 54 20 -24 c11 -14 16 -18 12 -10 -6 11 -2 11 12 -2
51 -45 130 -26 160 37 20 42 13 78 -22 110 -67 62 -150 32 -179 -63 l-11 -34
-43 55 c-37 48 -75 134 -68 155 6 21 -53 114 -99 157 -63 59 -139 101 -173 96
-7 -1 -11 1 -8 6 3 4 -50 10 -116 11 -109 4 -127 7 -172 30 -27 15 -52 30 -55
33 -8 8 -61 27 -100 35 -104 21 -204 9 -287 -32 -28 -15 -56 -23 -62 -19 -6 3
-10 3 -9 -2 2 -4 -1 -9 -7 -10 -5 -2 -10 0 -10 5 -1 14 -67 112 -76 112 -5 0
-9 5 -9 10 0 7 6 7 20 0 21 -11 70 -6 101 11 24 12 49 61 49 95 0 16 -12 38
-34 60 -40 40 -89 46 -129 14z m108 -35 c28 -27 31 -45 14 -78 -16 -29 -28
-37 -63 -37 -40 0 -66 26 -66 67 0 67 68 96 115 48z m-352 -50 c69 -18 142
-54 187 -92 43 -36 108 -136 116 -179 3 -19 7 -34 9 -34 2 0 18 14 36 32 57
53 132 81 229 86 103 4 179 -17 264 -72 53 -36 59 -38 114 -31 73 8 189 -9
247 -36 104 -49 172 -140 197 -264 9 -45 20 -68 46 -95 141 -145 117 -435 -48
-584 -73 -65 -182 -103 -265 -90 l-42 6 -22 -64 c-71 -197 -194 -308 -340
-308 -46 0 -50 3 -85 47 -20 25 -35 48 -33 50 2 1 29 -2 61 -8 125 -23 216 31
286 171 17 33 36 84 44 112 26 96 17 90 121 82 81 -6 97 -4 141 15 67 30 127
91 161 165 24 53 28 73 28 151 0 82 -3 95 -31 145 -22 38 -46 64 -79 85 -47
29 -54 30 -169 31 -67 1 -127 2 -133 3 -20 2 -16 59 5 69 25 14 149 21 210 13
29 -4 54 -6 56 -3 9 9 -27 91 -54 124 -50 61 -124 90 -241 96 -84 4 -99 2 -99
-10 0 -23 -26 -40 -50 -33 -11 4 -28 23 -38 43 -13 29 -32 44 -85 71 -60 31
-76 35 -150 35 -66 1 -91 -4 -129 -23 -59 -28 -108 -84 -131 -149 -20 -54 -37
-68 -68 -52 -21 12 -26 29 -32 120 -8 119 -68 210 -175 262 -61 30 -74 33
-162 33 -84 0 -101 -3 -146 -27 -61 -32 -109 -85 -139 -152 l-22 -51 -74 0
c-63 -1 -83 -6 -135 -32 -117 -61 -188 -174 -188 -298 0 -78 14 -113 83 -204
32 -43 38 -57 30 -72 -15 -29 -58 -24 -96 13 l-32 31 -55 -46 c-202 -173 -106
-457 179 -532 73 -19 142 -19 175 0 31 18 66 19 77 2 4 -6 10 -40 14 -74 8
-82 36 -132 91 -166 35 -22 60 -29 102 -30 56 -2 56 -2 57 -34 1 -18 2 -39 3
-45 1 -17 -70 -12 -143 8 -70 20 -150 97 -174 168 -9 27 -17 57 -17 66 0 13
-11 15 -68 12 -182 -10 -369 93 -444 246 -28 57 -34 79 -36 154 -4 80 -1 93
25 151 30 62 100 142 156 175 18 11 25 22 21 32 -27 62 -36 128 -27 195 26
187 169 330 365 366 54 10 68 16 72 33 9 36 91 120 147 151 98 53 200 67 302
40z m-3 -127 c48 -15 128 -67 135 -90 4 -10 11 -18 16 -18 17 0 47 -85 54
-156 4 -38 9 -75 10 -82 2 -16 54 -62 69 -62 28 0 77 42 83 70 3 17 10 30 15
30 5 0 7 4 3 10 -7 11 60 79 99 100 19 10 57 15 110 15 98 0 148 -22 217 -97
41 -44 49 -48 75 -42 16 4 39 14 52 22 22 15 83 17 160 7 54 -7 127 -53 146
-91 19 -42 20 -41 -94 -47 -84 -4 -157 -28 -145 -47 3 -5 1 -11 -4 -14 -13 -9
-2 -47 22 -73 19 -21 29 -23 134 -22 90 0 121 -3 151 -17 43 -21 90 -72 98
-106 12 -50 22 -114 19 -128 -13 -77 -21 -100 -50 -146 -51 -79 -127 -129
-199 -128 -22 0 -62 3 -87 8 -43 7 -47 5 -77 -25 -20 -21 -35 -49 -42 -82 -14
-65 -63 -163 -103 -204 -46 -48 -99 -65 -191 -60 -67 3 -80 7 -99 28 -41 46
-87 108 -87 117 0 9 79 85 204 197 37 33 90 81 117 108 27 26 53 47 58 47 4 0
8 6 9 13 1 6 3 23 4 36 5 40 -31 51 -153 48 -85 -2 -109 -5 -123 -20 -10 -9
-22 -14 -28 -11 -6 4 -8 3 -5 -3 5 -8 -81 -102 -97 -104 -2 -1 -56 -52 -120
-114 -64 -62 -116 -112 -116 -111 0 1 -31 -28 -69 -66 -38 -37 -74 -68 -80
-68 -8 0 -11 155 -12 533 0 580 -2 714 -9 736 -4 13 -25 35 -64 68 -5 5 -28 7
-50 5 -44 -4 -97 -38 -118 -75 -10 -17 -13 -178 -13 -732 l0 -710 -44 -3 c-47
-3 -125 24 -115 39 3 5 -1 9 -8 9 -21 0 -38 37 -54 117 -17 89 -45 125 -91
117 -15 -3 -33 -10 -40 -16 -8 -7 -43 -9 -94 -5 -65 4 -94 11 -146 38 -65 33
-122 83 -141 123 -44 93 -45 98 -34 158 12 67 52 130 99 159 32 20 32 20 52 0
12 -12 21 -18 21 -14 0 4 5 2 11 -4 13 -13 62 -2 83 19 33 34 29 54 -30 140
-57 82 -57 83 -58 158 -1 115 45 198 144 261 44 28 113 46 147 39 62 -14 77
-4 124 80 24 44 45 77 48 75 2 -3 10 4 18 15 8 11 21 20 29 20 8 0 14 4 14 9
0 10 31 21 80 27 19 3 36 7 39 9 6 6 77 -4 121 -17z m14 -90 l25 -23 3 -677
c2 -373 4 -678 6 -678 2 0 96 87 209 193 113 105 244 229 292 273 l87 82 122
3 c67 2 122 4 122 3 0 -3 -406 -371 -421 -382 -11 -7 -19 -18 -19 -23 0 -11
380 -515 456 -606 24 -28 44 -54 44 -57 0 -3 -53 -6 -118 -6 l-119 0 -188 244
c-103 134 -191 250 -195 257 -9 13 -12 11 -195 -148 l-80 -69 -1 -118 c-2
-106 -4 -119 -24 -141 -45 -48 -128 -34 -149 25 -15 44 -16 1792 -1 1820 14
25 58 49 92 50 15 0 38 -10 52 -22z m1680 -439 c36 -28 36 -80 0 -108 -15 -12
-34 -21 -44 -21 -34 0 -70 39 -70 75 0 36 36 75 70 75 10 0 29 -9 44 -21z m44
-319 c46 -43 11 -120 -54 -120 -35 0 -74 37 -74 70 0 10 9 29 21 44 26 33 75
35 107 6z m-688 -955 c75 -39 28 -152 -54 -131 -32 8 -59 57 -50 91 6 22 44
53 67 55 4 0 21 -7 37 -15z"/>
<path d="M2093 2275 c-71 -38 -83 -107 -29 -161 55 -55 125 -43 162 27 41 80
-55 177 -133 134z m89 -42 c25 -29 29 -53 13 -82 -24 -48 -72 -55 -110 -16
-30 29 -32 68 -5 95 25 25 81 27 102 3z"/>
<path d="M2385 2118 c-30 -18 -40 -30 -52 -64 -14 -38 3 -81 43 -113 53 -42
142 -6 160 65 7 28 -10 75 -36 99 -24 21 -89 29 -115 13z m79 -29 c50 -23 51
-92 2 -124 -72 -47 -147 61 -80 114 31 24 43 26 78 10z"/>
<path d="M2640 1888 c-29 -9 -63 -59 -70 -103 -6 -34 17 -68 62 -91 50 -26
115 0 138 56 32 78 -50 165 -130 138z m85 -53 c30 -30 31 -54 4 -89 -15 -19
-30 -26 -54 -26 -37 0 -75 37 -75 72 0 27 45 68 75 68 14 0 37 -11 50 -25z"/>
<path d="M2729 950 c-60 -48 -58 -113 3 -165 36 -31 96 -24 131 15 52 58 35
129 -40 169 -34 17 -56 13 -94 -19z m111 -30 c11 -11 20 -33 20 -50 0 -17 -9
-39 -20 -50 -43 -43 -120 -11 -120 50 0 38 32 70 70 70 17 0 39 -9 50 -20z"/>
<path d="M2603 688 c-25 -12 -53 -64 -53 -98 0 -53 79 -111 130 -95 36 11 80
64 80 97 0 35 -28 88 -47 88 -7 0 -13 5 -13 10 0 13 -69 12 -97 -2z m102 -43
c30 -30 31 -54 4 -89 -26 -33 -73 -35 -106 -4 -29 27 -29 57 -2 92 27 34 71
35 104 1z"/>
<path d="M2408 459 c-34 -13 -62 -71 -54 -112 11 -56 86 -98 140 -77 59 22 86
115 45 159 -36 39 -79 49 -131 30z m96 -40 c53 -41 21 -119 -48 -119 -68 0
-96 79 -44 123 27 23 59 22 92 -4z"/>
</g>
</svg>
