<?xml version="1.0" encoding="UTF-8" standalone="no"?>
<!DOCTYPE svg PUBLIC "-//W3C//DTD SVG 1.1//EN" "http://www.w3.org/Graphics/SVG/1.1/DTD/svg11.dtd">
<svg width="100%" height="100%" viewBox="0 0 960 960" version="1.1" xmlns="http://www.w3.org/2000/svg" xmlns:xlink="http://www.w3.org/1999/xlink" xml:space="preserve" xmlns:serif="http://www.serif.com/" style="fill-rule:evenodd;clip-rule:evenodd;stroke-linejoin:round;stroke-miterlimit:2;">
    <g transform="matrix(0.5,0,0,0.5,0,0)">
        <g transform="matrix(1.00581,0,0,1.00267,-1.53912,-5.05571)">
            <path d="M1886.18,206.757L1886.18,1716.58C1886.18,1813.77 1807.52,1892.67 1710.64,1892.67L200.83,1892.67C103.944,1892.67 25.284,1813.77 25.284,1716.58L25.284,206.757C25.284,109.567 103.944,30.662 200.83,30.662L1710.64,30.662C1807.52,30.662 1886.18,109.567 1886.18,206.757Z" style="fill:white;"/>
        </g>
        <path d="M1920,170.601L1920,1749.4C1920,1843.56 1843.56,1920 1749.4,1920L170.601,1920C76.444,1920 0,1843.56 0,1749.4L0,170.601C0,76.444 76.444,0 170.601,0L1749.4,0C1843.56,0 1920,76.444 1920,170.601ZM1885.54,197.15C1885.54,106.372 1811.84,32.672 1721.07,32.672L198.935,32.672C108.157,32.672 34.457,106.372 34.457,197.15L34.457,1722.85C34.457,1813.63 108.157,1887.33 198.935,1887.33L1721.07,1887.33C1811.84,1887.33 1885.54,1813.63 1885.54,1722.85L1885.54,197.15Z"/>
        <g transform="matrix(1.32313,0,0,1.32313,-160.239,-261.655)">
            <path d="M833.046,397.434L1058.3,397.434L658.043,882.591L1080.82,1449.18L843.442,1449.18L463.98,927.641L462.248,1449.18L283.78,1449.18L283.78,397.434L462.248,397.434L462.248,889.522L833.046,397.434Z" style="fill-rule:nonzero;"/>
        </g>
        <g transform="matrix(1.10985,0,0,1.10622,-528.424,1503.86)">
            <path d="M1398.78,-199.266L1398.78,-547.064L1566.86,-547.064L1566.86,-484.687C1614.22,-541.289 1684.1,-569.59 1776.51,-569.59C1933.61,-569.59 2012.16,-473.136 2012.16,-280.228L2012.16,137.353L1845.82,137.353L1845.82,-224.782C1845.82,-369.174 1801.35,-441.37 1712.4,-441.37C1615.37,-441.37 1566.86,-363.976 1566.86,-209.188L1566.86,-199.266L1398.78,-199.266Z" style="fill-rule:nonzero;"/>
        </g>
    </g>
</svg>
